<svg height="512" viewBox="0 0 64 64" width="512" xmlns="http://www.w3.org/2000/svg"><g id="Sport-Table_Tennis" data-name="Sport-Table Tennis"><path d="m33.009 48.035a23.041 23.041 0 1 0 -19.944-11.585l-9.056 9.056a6 6 0 1 0 8.485 8.485l9.052-9.052a22.916 22.916 0 0 0 11.463 3.096zm-14.862-37.888a21.005 21.005 0 1 1 19.71 35.3l-25.3-25.3a21.035 21.035 0 0 1 5.59-10zm-6.031 12.384 23.354 23.353a20.883 20.883 0 0 1 -12.453-2.416l2.912-2.912a1 1 0 0 0 0-1.414l-7.072-7.071a1 1 0 0 0 -1.414 0l-2.911 2.912a20.878 20.878 0 0 1 -2.416-12.452zm-1.036 30.046a4 4 0 1 1 -5.657-5.657l12.727-12.728 5.658 5.657z"/><path d="m55 48a7 7 0 1 0 7 7 7.008 7.008 0 0 0 -7-7zm0 12a5 5 0 1 1 5-5 5.006 5.006 0 0 1 -5 5z"/><path d="m42 50h4v2h-4z"/><path d="m38 50h2v2h-2z"/><path d="m44 54h2v2h-2z"/><path d="m35 54h7v2h-7z"/><path d="m38 58h8v2h-8z"/><path d="m32 58h4v2h-4z"/></g></svg>